# xmcd
#
# Track frame offsets:
#  150
#  14695
#  28318
#  42461
#  62773
#  81092
#  98477
#  120175
#  132280
#  149017
#  166748
#  178778
#  190349
#  201405
#  221584
#  242136
#  263726
#  278962
#
# Disc length: 3802 seconds
#
# Revision: 0
# Processed by: cddbd v1.5.1PL2 Copyright (c) Steve Scherf et al.
# Submitted via: Collectorz.com_Music_Collector 6.11
#
DISCID=0e0ed812
DTITLE=Live In '63 - J.B. Lenoir, Sunnyland Slim and Friends
DYEAR=2003
DGENRE=
TTITLE0=Harlem Can't Be Heaven
TTITLE1=I Want To Know
TTITLE2=It's You Baby
TTITLE3=Brown Skin Woman
TTITLE4=Lend Me Your Love
TTITLE5=J.B.'s Harp-Rack Blues
TTITLE6=Piney Brown Blues
TTITLE7=For You, My Love
TTITLE8=My Dear Old Mother
TTITLE9=I Had My Trouble
TTITLE10=L.L.'s Blues
TTITLE11=Everithing's Gonna Be Alright
TTITLE12=That's All Right
TTITLE13=Louise
TTITLE14=Mojo Boogie
TTITLE15=The Devil Is A Busy Man
TTITLE16=Worried Life Blues
TTITLE17=Sunnyland Blues
EXTD=
EXTT0=
EXTT1=
EXTT2=
EXTT3=
EXTT4=
EXTT5=
EXTT6=
EXTT7=
EXTT8=
EXTT9=
EXTT10=
EXTT11=
EXTT12=
EXTT13=
EXTT14=
EXTT15=
EXTT16=
EXTT17=
PLAYORDER=
